File Name

After Life 2010 800p BRRip H264.mp4

File Size
Format : MPEG-4
Format profile : Base Media
Codec ID : isom
File size : 3.69 GiB
Duration : 1h 42mn
Overall bit rate : 5 137 Kbps

Video
ID : 1
Format : AVC
Format/Info : Advanced Video Codec
Format profile : High@L4.1
Format settings, CABAC : Yes
Format settings, ReFrames : 3 frames
Codec ID : avc1
Codec ID/Info : Advanced Video Coding
Duration : 1h 42mn
Bit rate mode : Variable
Bit rate : 4 499 Kbps
Maximum bit rate : 20.2 Mbps
Width : 1 920 pixels
Height : 800 pixels
Display aspect ratio : 2.40:1
Frame rate mode : Constant
Frame rate : 23.976 fps
Resolution : 24 bits
Colorimetry : 4:2:0
Scan type : Progressive
Bits/(Pixel*Frame) : 0.122
Stream size : 3.23 GiB (87%)

Audio #1
ID : 2
Format : AAC
Format/Info : Advanced Audio Codec
Format version : Version 4
Format profile : LC
Format settings, SBR : No
Codec ID : 40
Duration : 1h 42mn
Bit rate mode : Variable
Bit rate : 192 Kbps
Maximum bit rate : 199 Kbps
Channel(s) : 2 channels
Channel positions : L R
Sampling rate : 48.0 KHz
Resolution : 16 bits
Stream size : 141 MiB (4%)

Audio #2
ID : 3
Format : AAC
Format/Info : Advanced Audio Codec
Format version : Version 4
Format profile : LC
Format settings, SBR : No
Codec ID : 40
Duration : 1h 42mn
Bit rate mode : Variable
Bit rate : 448 Kbps
Maximum bit rate : 461 Kbps
Channel(s) : 6 channels
Channel positions : Front: L C R, Rear: L R, LFE
Sampling rate : 48.0 KHz
Resolution : 16 bits
Stream size : 329 MiB (9%)

English SRT : ----

Language : English

 
http://www.imdb.com/title/tt0838247/

Release Date: 26 August 2010 (Netherlands) 

Genre: Drama | Mystery | Thriller 

Plot: A young woman caught between life and death... and a funeral director who appears to have the gift of transitioning the dead, but might just be intent on burying her alive.

Cast: 
Christina Ricci ... Anna Taylor
Liam Neeson ... Eliot Deacon
Justin Long ... Paul Coleman
Chandler Canterbury ... Jack
Celia Weston ... Beatrice Taylor
Luz Alexandra Ramos ... Diane
Josh Charles ... Tom Peterson
Rosemary Murphy ... Mrs. Whitehall
Malachy McCourt ... Father Graham
Shuler Hensley ... Vincent Miller
Alice Drummond ... Mrs. Hutton
Sam Kressner ... Acne Kid
Doan Ly ... Teacher #1
Jack Rovello ... Tall Kid
Prudence Wright Holmes ... Old Woman #1



Screenshots
 
http://postimg.com/image/20000/19056.jpg